<svg width="60" height="20" viewBox="0 0 60 20" fill="none" xmlns="http://www.w3.org/2000/svg">
<g id="Google_2015_logo 1" clip-path="url(#clip0_17801_10174)">
<path id="Vector" d="M25.8478 10.2565C25.8478 13.0326 23.6747 15.0782 21.0079 15.0782C18.341 15.0782 16.168 13.0326 16.168 10.2565C16.168 7.46084 18.341 5.43475 21.0079 5.43475C23.6747 5.43475 25.8478 7.46084 25.8478 10.2565ZM23.7291 10.2565C23.7291 8.52171 22.4697 7.33475 21.0079 7.33475C19.5461 7.33475 18.2867 8.52171 18.2867 10.2565C18.2867 11.9739 19.5461 13.1782 21.0079 13.1782C22.4697 13.1782 23.7291 11.9717 23.7291 10.2565Z" fill="#EA4335"/>
<path id="Vector_2" d="M36.2892 10.2565C36.2892 13.0326 34.1161 15.0782 31.4493 15.0782C28.7824 15.0782 26.6094 13.0326 26.6094 10.2565C26.6094 7.46301 28.7824 5.43475 31.4493 5.43475C34.1161 5.43475 36.2892 7.46084 36.2892 10.2565ZM34.1705 10.2565C34.1705 8.52171 32.9111 7.33475 31.4493 7.33475C29.9875 7.33475 28.7281 8.52171 28.7281 10.2565C28.7281 11.9739 29.9875 13.1782 31.4493 13.1782C32.9111 13.1782 34.1705 11.9717 34.1705 10.2565Z" fill="#FBBC05"/>
<path id="Vector_3" d="M46.2921 5.72606V14.3826C46.2921 17.9434 44.1908 19.3978 41.7067 19.3978C39.3683 19.3978 37.9609 17.8348 37.4302 16.5565L39.2748 15.7891C39.6032 16.5739 40.4081 17.5 41.7045 17.5C43.2946 17.5 44.28 16.5195 44.28 14.6739V13.9804H44.2061C43.7318 14.5652 42.8182 15.0761 41.6654 15.0761C39.253 15.0761 37.043 12.9761 37.043 10.2739C37.043 7.55214 39.253 5.43475 41.6654 5.43475C42.8161 5.43475 43.7297 5.94562 44.2061 6.51301H44.28V5.72823H46.2921V5.72606ZM44.4301 10.2739C44.4301 8.57606 43.2968 7.33475 41.8546 7.33475C40.3928 7.33475 39.1682 8.57606 39.1682 10.2739C39.1682 11.9543 40.3928 13.1782 41.8546 13.1782C43.2968 13.1782 44.4301 11.9543 44.4301 10.2739Z" fill="#4285F4"/>
<path id="Vector_4" d="M49.6095 0.652161V14.7826H47.543V0.652161H49.6095Z" fill="#34A853"/>
<path id="Vector_5" d="M57.6631 11.8435L59.3076 12.9391C58.7768 13.7239 57.4978 15.0761 55.2877 15.0761C52.5469 15.0761 50.5 12.9587 50.5 10.2544C50.5 7.38696 52.5643 5.43262 55.0506 5.43262C57.5543 5.43262 58.779 7.42392 59.1792 8.50001L59.3989 9.04783L52.9493 11.7174C53.4431 12.6848 54.211 13.1783 55.2877 13.1783C56.3666 13.1783 57.1149 12.6478 57.6631 11.8435ZM52.6013 10.1087L56.9126 8.31957C56.6755 7.7174 55.962 7.29783 55.1224 7.29783C54.0457 7.29783 52.5469 8.24783 52.6013 10.1087Z" fill="#EA4335"/>
<path id="Vector_6" d="M8.34423 9.00211V6.95646H15.2419C15.3094 7.31298 15.3442 7.73472 15.3442 8.19124C15.3442 9.72602 14.9243 11.6238 13.5713 12.976C12.2553 14.3456 10.5739 15.076 8.3464 15.076C4.21779 15.076 0.746094 11.7152 0.746094 7.58907C0.746094 3.46298 4.21779 0.102112 8.3464 0.102112C10.6304 0.102112 12.2575 0.997764 13.48 2.16516L12.0356 3.60863C11.159 2.78689 9.97131 2.14776 8.34423 2.14776C5.32934 2.14776 2.97137 4.57602 2.97137 7.58907C2.97137 10.6021 5.32934 13.0304 8.34423 13.0304C10.2998 13.0304 11.4135 12.2456 12.127 11.5325C12.7056 10.9543 13.0863 10.1282 13.2364 8.99994L8.34423 9.00211Z" fill="#4285F4"/>
</g>
<defs>
<clipPath id="clip0_17801_10174">
<rect width="59.1667" height="20" fill="white" transform="translate(0.667969)"/>
</clipPath>
</defs>
</svg>
