<svg width="156" height="46" viewBox="0 0 156 46" fill="none" xmlns="http://www.w3.org/2000/svg">
<g id="qwent logo (color) 2" clip-path="url(#clip0_17900_7095)">
<path id="Vector" fill-rule="evenodd" clip-rule="evenodd" d="M63.3791 7.66746C70.9979 7.66746 75.3451 10.5715 75.3451 18.3625C75.3726 19.7085 75.1279 21.0461 74.6257 22.2947C74.1236 23.5432 73.3745 24.6768 72.4236 25.627H74.8028C74.9876 25.6234 75.1712 25.6573 75.3426 25.7265C75.514 25.7959 75.6697 25.8991 75.8004 26.0302C75.931 26.1612 76.034 26.3175 76.1031 26.4894C76.1722 26.6613 76.2059 26.8455 76.2023 27.0307V28.2503C76.2059 28.4356 76.1722 28.6198 76.1031 28.7917C76.034 28.9637 75.931 29.1198 75.8004 29.2509C75.6697 29.3819 75.514 29.4853 75.3426 29.5545C75.1712 29.6238 74.9876 29.6577 74.8028 29.6541H63.3791C55.7691 29.6541 51.4219 26.4517 51.4219 18.6608C51.4219 10.8698 55.7954 7.66746 63.3791 7.66746ZM57.02 18.6608C57.02 23.0914 58.7694 25.627 63.3791 25.627C67.9888 25.627 69.747 22.7843 69.747 18.3625C69.747 13.9406 67.9451 11.7033 63.3791 11.7033C58.8131 11.7033 57.02 14.2389 57.02 18.6608ZM90.8794 13.1685C91.2681 13.1653 91.6472 13.2921 91.9557 13.5288C92.2651 13.7655 92.4865 14.0987 92.5858 14.4757L94.9912 22.5123L97.4227 14.4757C97.577 14.0725 97.855 13.7289 98.2166 13.494C98.5783 13.2592 99.0045 13.1452 99.4341 13.1685H102.207C102.907 13.1685 103.082 13.7212 102.811 14.4757L98.3064 28.1888C98.1652 28.577 97.9081 28.912 97.57 29.1476C97.231 29.3833 96.8283 29.5081 96.417 29.5048H94.3175C93.907 29.5019 93.507 29.3746 93.1697 29.1397C92.8325 28.905 92.5745 28.5735 92.4281 28.1888L89.5678 19.3012L86.7074 28.1888C86.5623 28.5742 86.304 28.9063 85.9666 29.1413C85.6293 29.3763 85.2288 29.5031 84.8181 29.5048H82.7188C82.3075 29.5055 81.9059 29.3797 81.5681 29.1444C81.2302 28.9091 80.9725 28.5756 80.8294 28.1888L76.3247 14.4757C76.0797 13.7212 76.2372 13.1685 76.9369 13.1685H79.7098C80.1389 13.1444 80.5644 13.2582 80.9247 13.4932C81.2849 13.7283 81.561 14.0724 81.7129 14.4757L84.1533 22.5123L86.5587 14.4757C86.6578 14.0987 86.8794 13.7655 87.1886 13.5288C87.4971 13.2921 87.8753 13.1653 88.264 13.1685H90.8794ZM112.896 26.4166C110.404 26.4166 109.301 25.3551 109.091 22.9072L120.331 22.8545C120.563 22.8545 120.786 22.7621 120.95 22.5976C121.114 22.433 121.206 22.2099 121.206 21.9772V21.0999C121.206 15.7304 117.917 12.8264 112.529 12.8264C107.141 12.8264 103.852 15.7918 103.852 21.3191C103.852 26.8466 107.115 29.7769 112.529 29.7769C117.401 29.7769 120.664 28.6715 120.664 25.4954C120.664 25.3764 120.64 25.2586 120.593 25.1492C120.546 25.0398 120.478 24.9411 120.392 24.859C120.307 24.7769 120.205 24.7133 120.093 24.6718C119.983 24.6304 119.864 24.6121 119.746 24.618H117.523C117.197 24.6077 116.874 24.6737 116.578 24.8108C116.281 24.9479 116.022 25.1522 115.818 25.4077C115.428 25.771 114.967 26.0485 114.463 26.2222C113.96 26.396 113.426 26.4622 112.896 26.4166ZM116.002 19.7662H109.091H109.056C109.178 17.4676 110.307 16.2568 112.564 16.2568C114.821 16.2568 115.914 17.4676 116.002 19.7662ZM135.918 20.0383C135.918 17.5027 134.756 16.4674 133.085 16.4674C131.588 16.4674 130.189 17.5027 129.096 18.5994V28.6276C129.102 28.7464 129.084 28.8653 129.042 28.9769C129.001 29.0884 128.937 29.1903 128.855 29.2766C128.773 29.3628 128.675 29.4313 128.566 29.4781C128.457 29.525 128.339 29.549 128.221 29.5488H124.897C124.778 29.549 124.661 29.525 124.552 29.4781C124.443 29.4313 124.344 29.3628 124.263 29.2766C124.181 29.1903 124.117 29.0884 124.076 28.9769C124.035 28.8653 124.017 28.7464 124.023 28.6276V14.081C124.023 13.8483 124.114 13.6251 124.278 13.4606C124.443 13.2961 124.665 13.2036 124.897 13.2036H128.221C128.453 13.2036 128.676 13.2961 128.84 13.4606C129.004 13.6251 129.096 13.8483 129.096 14.081V15.0286C130.487 13.6559 132.349 12.8708 134.301 12.8351C138.254 12.8351 141.062 14.9408 141.062 20.0119V28.6276C141.068 28.7503 141.049 28.8729 141.005 28.9874C140.961 29.1021 140.894 29.2062 140.806 29.293C140.72 29.3799 140.616 29.4475 140.502 29.4916C140.388 29.5356 140.265 29.5551 140.143 29.5488H136.828C136.709 29.549 136.592 29.525 136.483 29.4781C136.374 29.4313 136.275 29.3628 136.194 29.2766C136.112 29.1903 136.048 29.0884 136.007 28.9769C135.966 28.8653 135.948 28.7464 135.954 28.6276L135.918 20.0383ZM144.718 23.0913C144.718 27.6712 146.843 29.8119 151.112 29.8119C152.441 29.8352 153.769 29.7471 155.083 29.5487C155.32 29.5272 155.541 29.4232 155.708 29.2548C155.877 29.0865 155.98 28.8645 156.002 28.6275V26.9605C156.008 26.8379 155.989 26.7153 155.944 26.6006C155.901 26.4861 155.833 26.382 155.747 26.2951C155.66 26.2083 155.557 26.1406 155.442 26.0966C155.327 26.0525 155.205 26.033 155.083 26.0393H154.541C154.218 26.0393 153.917 26.0816 153.604 26.1256C153.264 26.1735 152.909 26.2235 152.494 26.2235C150.937 26.2235 149.87 25.1268 149.87 23.0475V17.5816H154.016C154.249 17.5816 154.471 17.4891 154.635 17.3246C154.798 17.1601 154.891 16.9369 154.891 16.7042V14.9495C154.897 14.8306 154.879 14.7118 154.837 14.6003C154.796 14.4887 154.732 14.3867 154.65 14.3006C154.569 14.2144 154.471 14.1458 154.361 14.0989C154.252 14.0522 154.134 14.0281 154.016 14.0282H149.87V9.05359C149.87 8.82095 149.778 8.59776 149.614 8.43323C149.45 8.26869 149.227 8.17626 148.995 8.17626H145.593C145.361 8.17626 145.139 8.26869 144.974 8.43323C144.81 8.59776 144.718 8.82095 144.718 9.05359V23.0913Z" fill="url(#paint0_linear_17900_7095)"/>
<path id="Vector_2" fill-rule="evenodd" clip-rule="evenodd" d="M59.1663 35.6012V33.0176L58.3906 33.0607V39.1581H59.2621L61.1969 36.1266C61.6188 35.4667 62 34.7822 62.3386 34.0769C62.2688 34.8261 62.2688 35.5667 62.2688 36.5486V39.1322H63.0183V33.0348H62.2165L60.2295 36.1783C59.8115 36.8256 59.4304 37.4956 59.0878 38.1849C59.1663 37.3668 59.1663 36.5745 59.1663 35.6013V35.6012ZM65.2147 36.4969V34.74H64.4129V39.1064H65.2147V37.1342H67.315V39.1064H68.1081V34.74H67.315V36.4969H65.2147ZM69.7989 34.74L71.2631 36.6433H71.4286V34.74H72.2392V36.6433H72.396L73.8601 34.74H74.784L73.0409 36.7294C73.3547 36.7646 73.6499 36.8942 73.8869 37.1006C74.1238 37.307 74.2909 37.5802 74.3656 37.8834C74.4969 38.3043 74.657 38.7157 74.8449 39.115H73.9822C73.8181 38.7917 73.684 38.4544 73.5813 38.1074C73.5143 37.8305 73.3511 37.5858 73.1202 37.4158C72.8891 37.2458 72.6051 37.1614 72.3176 37.1773H72.2392V39.115H71.4722V37.1773H71.3241C71.0342 37.1564 70.7465 37.24 70.5142 37.4126C70.2819 37.5852 70.1207 37.8351 70.0604 38.116C69.9407 38.458 69.7981 38.7918 69.6333 39.115H68.8577C68.9878 38.8638 69.1004 38.556 69.211 38.2535C69.2559 38.1307 69.3004 38.0089 69.3457 37.892C69.4194 37.586 69.5871 37.3099 69.8259 37.1018C70.0646 36.8936 70.3626 36.7635 70.6792 36.7294L68.9361 34.74H69.7989ZM76.0033 37.6631C75.9339 37.4717 75.9074 37.2678 75.9255 37.0653H79.0543C79.0618 36.942 79.0618 36.8183 79.0543 36.695C79.0835 36.4393 79.0583 36.1805 78.9805 35.935C78.9028 35.6895 78.7742 35.4627 78.6028 35.2689C78.4314 35.0753 78.2211 34.9191 77.9853 34.8102C77.7493 34.7013 77.4931 34.6422 77.2328 34.6367C76.9351 34.6444 76.6423 34.7132 76.3728 34.8385C76.1033 34.9638 75.8631 35.143 75.6673 35.3649C75.4716 35.5867 75.3246 35.8462 75.2355 36.127C75.1464 36.4079 75.1173 36.7039 75.1499 36.9964C75.1243 37.2879 75.1625 37.5814 75.2622 37.8569C75.3619 38.1324 75.5206 38.3834 75.7275 38.5927C75.9343 38.8021 76.1845 38.9648 76.4608 39.0697C76.7372 39.1748 77.0332 39.2196 77.3287 39.2011C77.8328 39.2116 78.334 39.1208 78.8015 38.9341L78.6621 38.3572C78.278 38.5235 77.8612 38.6029 77.442 38.5896C77.2368 38.6042 77.0309 38.5745 76.8385 38.5027C76.6461 38.4308 76.4717 38.3185 76.3276 38.1736C76.1833 38.0286 76.0727 37.8544 76.0033 37.6631ZM78.2432 36.0223C78.2887 36.1762 78.3008 36.338 78.2786 36.4969H75.9343C75.9377 36.1685 76.0661 35.8534 76.2937 35.6141C76.5213 35.3748 76.8317 35.2288 77.1631 35.205C77.3254 35.2085 77.4851 35.2457 77.6318 35.3144C77.7785 35.3831 77.9088 35.4817 78.0141 35.6037C78.1195 35.7257 78.1975 35.8684 78.2432 36.0223ZM80.8322 34.74V36.4969H82.9326V34.74H83.7343V39.1064H82.9326V37.1342H80.8322V39.1064H80.0392V34.74H80.8322ZM85.581 37.6631C85.5116 37.4717 85.485 37.2678 85.5032 37.0653H88.632C88.6398 36.942 88.6398 36.8183 88.632 36.695C88.6607 36.4386 88.6354 36.1791 88.5579 35.933C88.4794 35.6869 88.3496 35.4597 88.1779 35.2659C88.0054 35.0721 87.7936 34.916 87.5565 34.8077C87.3203 34.6993 87.0628 34.641 86.8018 34.6367C86.5048 34.6456 86.2129 34.7152 85.9445 34.8411C85.6761 34.9669 85.4369 35.1463 85.2421 35.3679C85.0473 35.5896 84.9009 35.8487 84.8124 36.129C84.7239 36.4092 84.695 36.7046 84.7276 36.9964C84.7019 37.2879 84.7402 37.5814 84.8399 37.8569C84.9396 38.1324 85.0983 38.3834 85.3052 38.5927C85.512 38.8021 85.7622 38.9648 86.0385 39.0697C86.3149 39.1748 86.6108 39.2196 86.9064 39.2011C87.411 39.2116 87.9112 39.1208 88.3792 38.9341L88.2398 38.3572C87.8554 38.5235 87.4389 38.6029 87.0197 38.5896C86.8145 38.6042 86.6086 38.5745 86.4162 38.5027C86.2237 38.4308 86.0494 38.3185 85.9052 38.1736C85.761 38.0286 85.6504 37.8544 85.581 37.6631ZM87.8206 36.0223C87.8668 36.1762 87.8781 36.338 87.8563 36.4969H85.512C85.5155 36.1685 85.6437 35.8534 85.8714 35.6141C86.099 35.3748 86.4094 35.2288 86.7408 35.205C86.9031 35.2085 87.0628 35.2457 87.2097 35.3144C87.3561 35.3831 87.4868 35.4817 87.5923 35.6037C87.6968 35.7257 87.7753 35.8684 87.8206 36.0223ZM89.6691 36.1697V36.1611V34.74H90.3924V35.4893C90.5502 35.2187 90.7794 34.9956 91.0565 34.8439C91.3328 34.6922 91.6456 34.6176 91.9611 34.6281C92.2348 34.6437 92.5032 34.7147 92.7481 34.8367C92.993 34.9588 93.21 35.1292 93.386 35.3375C93.5612 35.5458 93.6919 35.7875 93.7695 36.0477C93.8462 36.3079 93.8689 36.581 93.8349 36.8501C93.8349 38.4261 92.8675 39.2012 91.8304 39.2012C91.562 39.2127 91.2944 39.1553 91.0548 39.0345C90.8151 38.9138 90.6112 38.7338 90.4621 38.5122V40.8891H89.6691V36.1697ZM90.4621 37.3323C90.4525 37.4412 90.4525 37.5507 90.4621 37.6596C90.5301 37.9259 90.6861 38.1621 90.9057 38.3307C91.1253 38.4992 91.3955 38.5903 91.6735 38.5896C92.545 38.5896 93.0157 37.9007 93.0157 36.8673C93.0157 35.8338 92.5538 35.2396 91.6997 35.2396C91.4156 35.2462 91.1428 35.3465 90.9232 35.5243C90.7035 35.7023 90.5502 35.9476 90.4883 36.2213C90.4508 36.3265 90.4299 36.437 90.4273 36.5486L90.4621 37.3323ZM95.6127 36.4969V34.74H94.8197V39.1064H95.6127V37.1342H97.7218V39.1064H98.5149V34.74H97.7218V36.4969H95.6127ZM102.28 39.115L102.219 38.5638C102.061 38.7684 101.856 38.9335 101.622 39.0457C101.386 39.1579 101.129 39.2141 100.868 39.2097C100.694 39.2228 100.518 39.2 100.353 39.1426C100.188 39.0852 100.037 38.9945 99.9084 38.8763C99.7812 38.7581 99.6792 38.6149 99.6104 38.4559C99.5415 38.2968 99.5066 38.1254 99.5084 37.9524C99.5084 36.9017 100.467 36.316 102.175 36.3246V36.2385C102.194 36.1023 102.18 35.9639 102.136 35.8336C102.092 35.7034 102.018 35.5848 101.921 35.4868C101.823 35.3889 101.705 35.3142 101.574 35.2683C101.442 35.2225 101.303 35.2068 101.164 35.2223C100.758 35.2253 100.36 35.3385 100.014 35.5495L99.8308 35.0242C100.271 34.7646 100.775 34.6305 101.286 34.6367C102.637 34.6367 102.968 35.5495 102.968 36.428V38.0643C102.963 38.4158 102.987 38.7672 103.038 39.115H102.28ZM102.166 36.8759C101.295 36.8759 100.293 37.0136 100.293 37.8662C100.285 37.9669 100.3 38.0681 100.335 38.1629C100.37 38.2577 100.425 38.344 100.498 38.4158C100.569 38.4877 100.656 38.5435 100.751 38.5793C100.847 38.6153 100.949 38.6305 101.051 38.6241C101.285 38.6298 101.515 38.562 101.708 38.4305C101.901 38.299 102.045 38.1105 102.123 37.892C102.135 37.8092 102.135 37.7251 102.123 37.6423L102.166 36.8759ZM106.733 39.115H107.535L107.526 39.1064V34.8003C107.052 34.7423 106.575 34.7106 106.097 34.7056C105.585 34.6841 105.076 34.7876 104.615 35.007C104.439 35.0954 104.289 35.2309 104.187 35.3983C104.084 35.5657 104.03 35.7583 104.032 35.9543C104.052 36.2475 104.183 36.5225 104.399 36.7238C104.616 36.9252 104.902 37.038 105.199 37.0395C105.013 37.0793 104.841 37.1686 104.703 37.2978C104.37 37.6775 104.131 38.1287 104.005 38.6155C103.929 38.7903 103.835 38.9575 103.726 39.115H104.598C104.666 38.998 104.727 38.8772 104.781 38.7533C104.89 38.3018 105.102 37.8807 105.4 37.5217C105.606 37.3508 105.871 37.2645 106.141 37.2806H106.733V39.115ZM106.071 35.2137C106.293 35.2101 106.514 35.2274 106.733 35.2654V36.738H106.053C105.574 36.738 104.877 36.5916 104.877 35.9802C104.877 35.3687 105.522 35.2137 106.071 35.2137ZM113.514 34.74V36.6347H113.705L115.37 34.74H116.355L114.42 36.7122C115.135 36.7811 115.562 37.2462 115.91 38.0385C116.05 38.4029 116.21 38.7594 116.39 39.1064H115.518C115.363 38.8285 115.226 38.5408 115.108 38.2451C115.019 37.934 114.826 37.662 114.56 37.4742C114.294 37.2863 113.971 37.1937 113.644 37.2117H113.487V39.1409H112.694V34.7658L113.514 34.74ZM120.934 37.7705C121.034 37.4861 121.07 37.1841 121.043 36.8845C121.068 36.5956 121.031 36.3049 120.934 36.031C120.839 35.7572 120.685 35.5063 120.485 35.2946C120.284 35.0828 120.041 34.9148 119.772 34.8015C119.502 34.6882 119.211 34.6321 118.917 34.6367C118.614 34.6306 118.312 34.688 118.032 34.8048C117.753 34.9216 117.501 35.0954 117.293 35.3148C117.087 35.5342 116.928 35.7943 116.83 36.078C116.731 36.3619 116.694 36.6631 116.721 36.962C116.696 37.2501 116.734 37.5401 116.829 37.8133C116.925 38.0866 117.077 38.3371 117.277 38.5487C117.476 38.7603 117.718 38.9284 117.987 39.0422C118.256 39.1561 118.546 39.2131 118.838 39.2098C119.143 39.217 119.446 39.1606 119.727 39.0443C120.007 38.9281 120.26 38.7545 120.468 38.5349C120.676 38.3154 120.835 38.0549 120.934 37.7705ZM118.899 38.6585C118.115 38.6585 117.557 37.892 117.557 36.9361C117.557 36.1008 117.976 35.2137 118.926 35.2137C119.876 35.2137 120.25 36.1955 120.25 36.9361C120.25 37.9438 119.684 38.6585 118.899 38.6585ZM122.115 34.74H123.1L123.911 36.9447C123.959 37.0948 124.025 37.2884 124.093 37.4864V37.4866V37.4867V37.487C124.173 37.7205 124.255 37.9601 124.312 38.1418C124.416 37.8231 124.66 37.1256 124.834 36.6433L125.549 34.74H126.543L126.856 39.115H126.081L125.985 37.0222C125.985 36.7588 125.966 36.465 125.946 36.1627C125.93 35.9313 125.914 35.6949 125.906 35.4634C125.793 35.8596 125.671 36.2127 125.427 36.8759L124.556 39.0805H123.972L123.187 36.9275C123.048 36.5055 122.856 35.8768 122.743 35.472C122.743 35.8755 122.717 36.3159 122.692 36.715C122.685 36.827 122.679 36.9357 122.673 37.0394L122.56 39.115H121.819L122.115 34.74ZM131.554 39.1064V34.74H127.902V39.1064H128.695V35.3687H130.752V39.1064H131.554ZM135.319 39.115L135.249 38.5638C135.09 38.7684 134.886 38.9335 134.651 39.0457C134.417 39.1579 134.159 39.2141 133.898 39.2097C133.724 39.2229 133.549 39.2001 133.384 39.1426C133.219 39.0851 133.068 38.9943 132.941 38.8759C132.815 38.7576 132.714 38.6143 132.646 38.4553C132.578 38.2962 132.545 38.1249 132.547 37.9524C132.547 36.9017 133.497 36.316 135.205 36.3246V36.2385C135.224 36.1023 135.21 35.9639 135.166 35.8336C135.122 35.7034 135.049 35.5848 134.951 35.4868C134.853 35.3889 134.735 35.3142 134.603 35.2683C134.472 35.2225 134.332 35.2068 134.194 35.2223C133.788 35.2253 133.39 35.3385 133.044 35.5495L132.861 35.0242C133.3 34.7646 133.804 34.6305 134.316 34.6367C135.667 34.6367 135.998 35.5495 135.998 36.428V38.0643C135.991 38.4162 136.018 38.7679 136.077 39.115H135.319ZM135.197 36.8759C134.325 36.8759 133.323 37.0136 133.323 37.8662C133.315 37.9669 133.33 38.0681 133.365 38.1629C133.4 38.2577 133.455 38.344 133.528 38.4158C133.599 38.4877 133.685 38.5435 133.781 38.5793C133.877 38.6153 133.979 38.6305 134.081 38.6241C134.316 38.6298 134.545 38.562 134.737 38.4305C134.93 38.299 135.076 38.1105 135.153 37.892C135.18 37.8114 135.195 37.7272 135.197 37.6423V36.8759ZM138.046 36.4969V34.74H137.253V39.1064H138.046V37.1342H140.156V39.1064H140.949V34.74H140.156V36.4969H138.046ZM143.005 34.7401V36.5831C143.005 37.2807 143.005 37.7113 142.962 38.3055C143.018 38.1933 143.07 38.0903 143.119 37.993L143.12 37.9915C143.302 37.6264 143.443 37.3424 143.676 36.962L145.053 34.7056H146.003V39.0806H145.228V37.2204C145.228 36.5142 145.228 36.1439 145.289 35.4377C145.001 35.9974 144.809 36.3505 144.557 36.7897C144.381 37.0691 144.204 37.3745 144.019 37.691C143.753 38.1458 143.474 38.6237 143.171 39.0806H142.247V34.7056L143.005 34.7401ZM149.803 39.115H150.596L150.587 39.1064V34.8003C150.116 34.7422 149.642 34.7106 149.167 34.7056C148.655 34.6841 148.146 34.7876 147.685 35.007C147.508 35.0954 147.359 35.2309 147.257 35.3983C147.154 35.5657 147.1 35.7583 147.101 35.9543C147.121 36.2475 147.253 36.5225 147.469 36.7238C147.686 36.9252 147.972 37.038 148.269 37.0395C148.081 37.0813 147.907 37.1703 147.764 37.2978C147.437 37.6802 147.202 38.1307 147.075 38.6155C146.999 38.7903 146.905 38.9575 146.796 39.115H147.668C147.726 39.0059 147.787 38.8853 147.851 38.7533C147.956 38.3005 148.168 37.8787 148.47 37.5217C148.675 37.3492 148.941 37.2627 149.211 37.2806H149.803V39.115ZM149.141 35.2137C149.363 35.2106 149.584 35.2279 149.803 35.2654V36.738H149.115C148.644 36.738 147.938 36.5916 147.938 35.9802C147.938 35.3687 148.592 35.2137 149.141 35.2137Z" fill="url(#paint1_linear_17900_7095)"/>
<path id="Vector_3" fill-rule="evenodd" clip-rule="evenodd" d="M33.9453 26.8421L27.1562 25.5558L27.4874 32.294L35.1741 45.9917C40.4369 43.1623 44.75 38.9052 47.5931 33.7336L33.9453 26.8421Z" fill="#DD3310"/>
<path id="Vector_4" fill-rule="evenodd" clip-rule="evenodd" d="M27.1562 25.5558L42.5035 40.5229C42.5035 40.5229 38.2157 44.5095 35.1741 45.9917L27.4874 32.294L27.1562 25.5558Z" fill="#992504"/>
<path id="Vector_5" fill-rule="evenodd" clip-rule="evenodd" d="M27.1562 25.5558L42.7823 40.2417L42.3205 40.6932L27.1562 25.5558Z" fill="#EA5827"/>
<path id="Vector_6" fill-rule="evenodd" clip-rule="evenodd" d="M15.207 10.7585L15.7561 10.4348C15.5644 10.537 15.39 10.6477 15.207 10.7585Z" fill="#64A9D5"/>
<path id="Vector_7" opacity="0.51" fill-rule="evenodd" clip-rule="evenodd" d="M15 10.8866L15.2092 10.7588L15 10.8866Z" fill="white"/>
<path id="Vector_8" fill-rule="evenodd" clip-rule="evenodd" d="M22.6606 7.66667C24.191 7.66447 25.6959 7.47921 27.1578 7.92184L29.8246 1.10702C27.3223 0.31065 24.6989 -0.0610114 22.0682 0.0081448L21.7891 7.66667H22.6606Z" fill="#0B7FB5"/>
<path id="Vector_9" fill-rule="evenodd" clip-rule="evenodd" d="M22.0668 0.0425587C19.4822 0.112623 16.9292 0.616895 14.5195 1.5333L17.5175 8.11811C18.9803 7.60786 20.5146 7.7213 22.0668 7.66701V0.0425587Z" fill="#0F87BE"/>
<path id="Vector_10" fill-rule="evenodd" clip-rule="evenodd" d="M23.3818 37.2515V35.8204C23.1378 35.8204 22.8851 35.8204 22.6411 35.8204C21.3321 35.817 20.0299 35.6364 18.7716 35.2838L18.3008 36.63C19.7141 37.0465 21.1822 37.4804 22.6583 37.4819C22.9285 37.5415 23.1378 37.2686 23.3818 37.2515Z" fill="#7FB6DD"/>
<path id="Vector_11" fill-rule="evenodd" clip-rule="evenodd" d="M23.3828 35.8204V37.2174C24.932 37.1625 26.4634 36.8751 27.9234 36.3656L27.3395 35.0793C26.0656 35.5171 24.732 35.7669 23.3828 35.8204Z" fill="#83BCE2"/>
<path id="Vector_12" fill-rule="evenodd" clip-rule="evenodd" d="M15.4787 8.99523L12.4633 2.36786C10.1143 3.53042 7.98857 5.08087 6.17969 6.95083L11.4087 12.0619C12.5798 10.8239 13.9557 9.78719 15.4787 8.99523Z" fill="#188DC1"/>
<path id="Vector_13" fill-rule="evenodd" clip-rule="evenodd" d="M6.18748 6.95107C4.40902 8.78617 2.96736 10.907 1.92578 13.2207L8.7933 15.7762C9.46393 14.4037 10.703 13.4638 11.7651 12.3522L6.18748 6.95107Z" fill="#3E9AC8"/>
<path id="Vector_14" fill-rule="evenodd" clip-rule="evenodd" d="M9.10845 29.3553L2.44141 32.2516C3.63068 34.5453 5.21363 36.6228 7.12141 38.3934L12.2895 33.3504C11.0068 32.203 9.93142 30.8523 9.10845 29.3553Z" fill="#62AAD5"/>
<path id="Vector_15" fill-rule="evenodd" clip-rule="evenodd" d="M12.2865 33.349L13.2974 32.3608C12.1384 31.3339 11.1634 30.1246 10.4127 28.7831L9.10547 29.3538C9.92843 30.8509 11.0039 32.2016 12.2865 33.349Z" fill="#7FB6DC"/>
<path id="Vector_16" fill-rule="evenodd" clip-rule="evenodd" d="M7.12109 38.376C9.00301 40.1129 11.1754 41.5218 13.5441 42.5415L16.1586 35.8545C14.7412 35.1991 13.4336 34.3375 12.2804 33.2989L7.12109 38.376Z" fill="#62AAD5"/>
<path id="Vector_17" fill-rule="evenodd" clip-rule="evenodd" d="M13.3 32.3603L12.2891 33.3484C13.4422 34.387 14.7499 35.2487 16.1673 35.904L16.6815 34.6007C15.4475 34.0208 14.3081 33.2659 13.3 32.3603Z" fill="#7FB6DC"/>
<path id="Vector_18" fill-rule="evenodd" clip-rule="evenodd" d="M7.28583 22.267C7.28421 20.7773 7.51039 19.2957 7.95688 17.8714L1.14168 15.3159C0.319219 17.7602 -0.0640848 20.3252 0.00872586 22.8974H7.30325C7.29453 22.6844 7.28583 22.4714 7.28583 22.267Z" fill="#5CA2CD"/>
<path id="Vector_19" fill-rule="evenodd" clip-rule="evenodd" d="M0.0078125 22.8889C0.0803566 25.4151 0.596235 27.9104 1.53295 30.2659L8.19999 27.3696C7.67753 25.9282 7.38363 24.4172 7.32848 22.8889H0.0078125Z" fill="#61A7D3"/>
<path id="Vector_20" fill-rule="evenodd" clip-rule="evenodd" d="M36.1872 15.205L43.0199 12.232C41.8243 9.94233 40.2388 7.8683 38.3311 6.09874L32.6836 11.0739C33.9501 12.2233 35.3828 13.71 36.1872 15.205Z" fill="#026896"/>
<path id="Vector_21" fill-rule="evenodd" clip-rule="evenodd" d="M38.3311 6.09862C36.4516 4.35657 34.2788 2.9445 31.9081 1.92455L29.25 8.73934C30.6438 9.3991 31.9277 10.2607 33.0585 11.2949L38.3311 6.09862Z" fill="#0674A7"/>
<path id="Vector_22" fill-rule="evenodd" clip-rule="evenodd" d="M45.4058 21.6027H37.9457C37.9457 21.8242 37.9457 22.0457 37.9457 22.2671C37.9419 23.7098 37.7247 25.1444 37.3008 26.5264L44.2728 29.1416C45.0898 26.7107 45.4731 24.1605 45.4058 21.6027Z" fill="#015984"/>
<path id="Vector_23" fill-rule="evenodd" clip-rule="evenodd" d="M37.9798 21.6027H36.5941C36.6727 23.1148 36.4931 24.6291 36.0625 26.0834L37.3523 26.569C37.7762 25.187 37.9934 23.7524 37.9972 22.3097C37.9972 22.0457 37.9885 21.8242 37.9798 21.6027Z" fill="#246B93"/>
<path id="Vector_24" fill-rule="evenodd" clip-rule="evenodd" d="M45.4076 21.6021C45.3345 19.0732 44.8187 16.5752 43.8825 14.2166L37.0586 17.1896C37.5761 18.6087 37.87 20.0966 37.9301 21.6021H45.4076Z" fill="#01618E"/>
<path id="Vector_25" fill-rule="evenodd" clip-rule="evenodd" d="M36.5953 21.6035H37.981C37.9209 20.0979 37.627 18.6101 37.1095 17.1909L35.8633 17.7276C36.301 18.9773 36.5477 20.2833 36.5953 21.6035Z" fill="#29729C"/>
<path id="Vector_26" opacity="0.51" fill-rule="evenodd" clip-rule="evenodd" d="M36.0649 26.0832C36.4956 24.6288 36.6752 23.1145 36.5966 21.6024C36.5432 20.2815 36.2907 18.9754 35.8471 17.7265L36.8232 17.3091L35.7773 17.7436C36.304 19.196 36.5722 20.7259 36.5704 22.2669C36.5655 23.5558 36.3748 24.8377 36.0039 26.0747L37.3548 26.5687L36.0649 26.0832Z" fill="white"/>
<path id="Vector_27" opacity="0.51" fill-rule="evenodd" clip-rule="evenodd" d="M36.1831 15.2049L35.4336 15.5286L36.1918 15.2134L36.1831 15.2049Z" fill="white"/>
<path id="Vector_28" fill-rule="evenodd" clip-rule="evenodd" d="M22.6439 37.2772C21.1678 37.2757 19.7172 37.0467 18.3038 36.6302L15.6719 43.3424C18.1729 44.1441 20.7973 44.5159 23.4283 44.4413V37.2517C23.1407 37.2687 22.888 37.2772 22.6439 37.2772Z" fill="#62ABD6"/>
<path id="Vector_29" fill-rule="evenodd" clip-rule="evenodd" d="M23.3828 44.441C25.9669 44.374 28.52 43.8726 30.9301 42.9588L27.9234 36.3654C26.4634 36.8751 24.932 37.1623 23.3828 37.2173V44.441Z" fill="#66B1DD"/>
<path id="Vector_30" fill-rule="evenodd" clip-rule="evenodd" d="M22.0664 7.27499V8.67206H22.6416C23.1717 8.67299 23.7014 8.70434 24.2277 8.76576C25.0486 8.84243 25.86 8.99653 26.6505 9.22576L27.156 7.93944C25.6941 7.49681 24.1721 7.27279 22.6416 7.27499H22.0664Z" fill="#3A8EC0"/>
<path id="Vector_31" fill-rule="evenodd" clip-rule="evenodd" d="M22.0688 8.67206V7.27498C20.5166 7.32928 18.9823 7.61658 17.5195 8.12683L18.1034 9.40465C19.3817 8.97302 20.7176 8.72624 22.0688 8.67206Z" fill="#3D95C7"/>
<path id="Vector_32" fill-rule="evenodd" clip-rule="evenodd" d="M11.418 12.0458L12.4289 13.034C13.209 12.2183 14.0869 11.4976 15.0434 10.8873L15.2526 10.7595C15.4356 10.6488 15.6099 10.538 15.8017 10.4358C15.9934 10.3336 15.9934 10.3166 16.098 10.2655L15.5228 8.9962C13.9887 9.77973 12.601 10.8107 11.418 12.0458Z" fill="#469CCA"/>
<path id="Vector_33" fill-rule="evenodd" clip-rule="evenodd" d="M12.4088 13.0333L11.4153 12.0451C10.3532 13.1568 9.47141 14.4208 8.80078 15.7933L10.1429 16.2959C10.7324 15.1068 11.4957 14.0077 12.4088 13.0333Z" fill="#64A7D0"/>
<path id="Vector_34" fill-rule="evenodd" clip-rule="evenodd" d="M7.30303 22.8892H8.73231C8.73231 22.6848 8.73231 22.4718 8.73231 22.2674C8.73326 20.949 8.92996 19.6376 9.31622 18.3744L7.97408 17.8718C7.52759 19.2961 7.30142 20.7777 7.30303 22.2674C7.2856 22.4718 7.29432 22.6848 7.30303 22.8892Z" fill="#79AFD5"/>
<path id="Vector_35" fill-rule="evenodd" clip-rule="evenodd" d="M8.73007 22.8889H7.30078C7.35593 24.4172 7.64983 25.9282 8.17229 27.3696L9.47957 26.7989C9.03432 25.5387 8.78175 24.2212 8.73007 22.8889Z" fill="#7DB3DA"/>
<path id="Vector_36" fill-rule="evenodd" clip-rule="evenodd" d="M33.059 11.2447L32.0742 12.2072C33.2261 13.2233 34.1953 14.4212 34.9415 15.751L36.1877 15.2058C35.38 13.7229 34.3223 12.3837 33.059 11.2447Z" fill="#2D78A4"/>
<path id="Vector_37" fill-rule="evenodd" clip-rule="evenodd" d="M32.0713 12.207L33.0562 11.2444C31.9254 10.2101 30.6415 9.34851 29.2477 8.68884L28.7422 9.96661C29.9561 10.5535 31.0773 11.3079 32.0713 12.207Z" fill="#3485B4"/>
</g>
<defs>
<linearGradient id="paint0_linear_17900_7095" x1="103.712" y1="7.66746" x2="103.712" y2="29.8156" gradientUnits="userSpaceOnUse">
<stop stop-color="#015984"/>
<stop offset="1" stop-color="#003164"/>
</linearGradient>
<linearGradient id="paint1_linear_17900_7095" x1="104.493" y1="33.0176" x2="104.493" y2="40.8891" gradientUnits="userSpaceOnUse">
<stop stop-color="#015883"/>
<stop offset="1" stop-color="#003164"/>
</linearGradient>
<clipPath id="clip0_17900_7095">
<rect width="156" height="46" fill="white"/>
</clipPath>
</defs>
</svg>
