<svg width="70" height="20" viewBox="0 0 70 20" fill="none" xmlns="http://www.w3.org/2000/svg">
<g id="Yandex_logo_2021_Russian 2" clip-path="url(#clip0_17801_10187)">
<path id="Name" d="M66.7831 17.4151C68.1401 17.4151 69.1013 17.1698 69.8174 16.6415V14.2452C69.0824 14.7547 68.1966 15.0754 66.9528 15.0754C64.8608 15.0754 63.9939 13.4528 63.9939 10.8868C63.9939 8.18865 65.0493 6.81129 66.9716 6.81129C68.1024 6.81129 69.2143 7.20751 69.7986 7.58487V5.09431C69.1766 4.75468 68.1024 4.5094 66.6324 4.5094C62.8819 4.5094 60.9407 7.20751 60.9407 10.9811C60.9596 15.1132 62.8631 17.4151 66.7831 17.4151ZM48.4455 16.3207V13.9245C47.5409 14.5471 45.9954 15.0943 44.582 15.0943C42.4335 15.0943 41.6231 14.0754 41.4911 12H48.5774V10.4528C48.5774 6.13204 46.6739 4.5094 43.7527 4.5094C40.1719 4.5094 38.4757 7.24525 38.4757 11C38.4757 15.3207 40.6053 17.4151 44.337 17.4151C46.2028 17.4151 47.5786 16.9056 48.4455 16.3207ZM21.5515 4.73581V9.64147H17.6315V4.73581H14.6914V17.1698H17.6315V11.9811H21.5515V17.1698H24.4916V4.73581H21.5515ZM37.7407 14.8302H36.4403V4.73581H27.884V5.79242C27.884 8.83015 27.6955 12.7547 26.6589 14.8302H25.7166V20H28.4305V17.1698H35.0079V20H37.7218V14.8302H37.7407ZM57.8122 17.1698H61.148L56.4364 10.4717L60.5826 4.73581H57.6237L53.4775 10.4717V4.73581H50.5375V17.1698H53.4775V11.0566L57.8122 17.1698ZM43.6773 6.81129C45.1285 6.81129 45.5808 8.01883 45.5808 9.58487V9.83015H41.4911C41.5665 7.84902 42.2827 6.81129 43.6773 6.81129ZM33.5002 14.8302H29.354C30.1644 12.9622 30.3905 9.566 30.3905 7.41506V7.0377H33.5002V14.8302Z" fill="white"/>
<path id="Glyph" d="M12.2381 17.1698H9.24148V2.32075H7.90338C5.45333 2.32075 4.17177 3.54717 4.17177 5.37736C4.17177 7.45283 5.05755 8.41509 6.88566 9.64151L8.39338 10.6604L4.05869 17.1698H0.835938L4.73716 11.3585C2.49443 9.75472 1.23171 8.18868 1.23171 5.54717C1.23171 2.24528 3.53099 0 7.88453 0H12.2192V17.1698H12.2381Z" fill="#FC3F1D"/>
</g>
<defs>
<clipPath id="clip0_17801_10187">
<rect width="69.1667" height="20" fill="white" transform="translate(0.835938)"/>
</clipPath>
</defs>
</svg>
